<svg width="9" height="9" viewBox="0 0 9 9" fill="none" xmlns="http://www.w3.org/2000/svg">
<path d="M4.88705 0.596875L5.62039 2.06354C5.72039 2.26771 5.98706 2.46354 6.21206 2.50104L7.54122 2.72187C8.39122 2.86354 8.59122 3.48021 7.97872 4.08854L6.94539 5.12187C6.77039 5.29687 6.67455 5.63437 6.72872 5.87604L7.02456 7.15521C7.25789 8.16771 6.72039 8.55937 5.82455 8.03021L4.57872 7.29271C4.35372 7.15938 3.98289 7.15938 3.75372 7.29271L2.50789 8.03021C1.61622 8.55937 1.07456 8.16354 1.30789 7.15521L1.60372 5.87604C1.65789 5.63437 1.56206 5.29687 1.38706 5.12187L0.353722 4.08854C-0.254611 3.48021 -0.058778 2.86354 0.791222 2.72187L2.12039 2.50104C2.34122 2.46354 2.60789 2.26771 2.70789 2.06354L3.44122 0.596875C3.84122 -0.198958 4.49122 -0.198958 4.88705 0.596875Z" fill="#D17842"/>
</svg>
